#!OML:ASF F:\VICON\USERDATA\INSTALL\rory3\rory3.ASF
:FULLY-SPECIFIED
:DEGREES
79
root 15.1926 18.1114 -9.81759 -0.816385 -49.6881 3.15189
lowerback 6.70301 -0.151541 -2.18358
upperback -1.45891 -0.383663 0.153043
thorax -5.26451 -0.118865 1.42877
lowerneck -24.1573 -4.04911 -9.8361
upperneck 26.6566 -4.02878 6.22665
head 13.3541 -1.96018 3.35546
rclavicle -4.88203e-014 -7.95139e-016
rhumerus -33.1617 -11.3997 -83.2644
rradius 28.618
rwrist 12.8749
rhand -11.6073 7.71745
rfingers 7.12502
rthumb 14.4354 -21.7605
lclavicle -4.88203e-014 -7.95139e-016
lhumerus -34.9249 5.44236 85.3015
lradius 29.7632
lwrist -11.4564
lhand -14.464 26.1808
lfingers 7.12502
lthumb 11.6817 55.8351
rfemur -11.7761 5.43901 22.1738
rtibia 35.5526
rfoot -20.0236 -8.96893
rtoes 4.65799
lfemur -4.83301 -3.38161 -24.6543
ltibia 23.7064
lfoot -15.0611 5.81191
ltoes 3.33368
80
root 15.185 18.1082 -9.82091 -0.806791 -49.6217 3.03888
lowerback 6.77318 -0.16946 -2.11406
upperback -1.42532 -0.40156 0.177166
thorax -5.26863 -0.129687 1.41713
lowerneck -23.9232 -4.05234 -9.92942
upperneck 26.5576 -4.03599 6.28046
head 13.2701 -1.96797 3.38927
rclavicle 5.63555e-014 -3.57812e-015
rhumerus -33.1368 -11.4102 -83.3225
rradius 28.5888
rwrist 12.964
rhand -11.6756 7.75136
rfingers 7.12502
rthumb 14.3696 -21.7313
lclavicle 5.63555e-014 -3.57812e-015
lhumerus -34.9227 5.19953 85.3714
lradius 29.7561
lwrist -11.1866
lhand -14.8142 26.1547
lfingers 7.12502
lthumb 11.344 55.8279
rfemur -11.6443 5.43099 22.2936
rtibia 35.523
rfoot -20.0685 -9.01979
rtoes 4.84263
lfemur -4.77544 -3.26171 -24.5335
ltibia 23.7764
lfoot -15.1296 5.64162
ltoes 3.27483
81
root 15.1797 18.1062 -9.82573 -0.791981 -49.5429 2.92749
lowerback 6.84588 -0.191736 -2.03132
upperback -1.36768 -0.424061 0.197027
thorax -5.24895 -0.143724 1.39407
lowerneck -23.9266 -4.05901 -9.99651
upperneck 26.6553 -4.02055 6.26879
head 13.3114 -1.97193 3.40121
rclavicle -6.4164e-014 4.77083e-015
rhumerus -33.1329 -11.2688 -83.4434
rradius 28.701
rwrist 12.8352
rhand -11.4852 8.10618
rfingers 7.12502
rthumb 14.553 -21.3633
lclavicle -6.4164e-014 4.77083e-015
lhumerus -34.8907 5.02613 85.4361
lradius 29.7709
lwrist -10.9379
lhand -15.0965 26.0458
lfingers 7.12502
lthumb 11.0717 55.7338
rfemur -11.5443 5.37253 22.4053
rtibia 35.4961
rfoot -20.1143 -8.98432
rtoes 5.2093
lfemur -4.73725 -3.2173 -24.4224
ltibia 23.84
lfoot -15.1766 5.55574
ltoes 3.01264
82
root 15.1731 18.1049 -9.82945 -0.755962 -49.4019 2.85213
lowerback 6.82175 -0.211807 -1.88974
upperback -1.28251 -0.440338 0.133744
thorax -5.14674 -0.158892 1.24992
lowerneck -24.0972 -4.06427 -9.92208
upperneck 26.8378 -4.04225 6.25099
head 13.4217 -1.97677 3.38183
rclavicle 8.56886e-014 -1.11319e-014
rhumerus -33.1194 -11.1429 -83.6722
rradius 28.8738
rwrist 12.5992
rhand -11.1894 8.66148
rfingers 7.12502
rthumb 14.838 -20.7872
lclavicle 8.56886e-014 -1.11319e-014
lhumerus -34.807 4.92156 85.3673
lradius 29.8265
lwrist -10.8383
lhand -15.3672 25.9736
lfingers 7.12502
lthumb 10.8106 55.6754
rfemur -11.5011 5.30711 22.4914
rtibia 35.4923
rfoot -20.1715 -9.02491
rtoes 5.29124
lfemur -4.75062 -3.24253 -24.3313
ltibia 23.9128
lfoot -15.1958 5.43331
ltoes 2.92524
83
root 15.1638 18.103 -9.83318 -0.823153 -49.2601 2.99009
lowerback 6.75518 -0.243672 -1.95392
upperback -1.25769 -0.48831 0.102437
thorax -5.08115 -0.1821 1.2581
lowerneck -24.0992 -4.05621 -9.98046
upperneck 26.9021 -4.01368 6.26072
head 13.4479 -1.97049 3.40265
rclavicle 2.21769e-015 -6.75868e-015
rhumerus -33.1473 -10.8625 -83.8132
rradius 28.9653
rwrist 12.3935
rhand -11.2371 8.95436
rfingers 7.12502
rthumb 14.792 -20.4977
lclavicle 2.21769e-015 -6.75868e-015
lhumerus -34.7725 5.24521 85.2589
lradius 29.8046
lwrist -11.1633
lhand -15.5242 25.915
lfingers 7.12502
lthumb 10.6591 55.6247
rfemur -11.5095 5.39836 22.4373
rtibia 35.4967
rfoot -20.2933 -9.21781
rtoes 5.56629
lfemur -4.81421 -3.28143 -24.3954
ltibia 23.9752
lfoot -15.233 5.34944
ltoes 2.70405
84
root 15.156 18.0977 -9.83523 -0.878396 -49.1701 3.05756
lowerback 6.77308 -0.278495 -1.98075
upperback -1.28266 -0.536161 0.133615
thorax -5.11521 -0.203898 1.31112
lowerneck -23.9185 -4.04714 -10.2019
upperneck 26.965 -3.95854 6.32351
head 13.4393 -1.96618 3.47753
rclavicle -8.20608e-015 -8.94531e-015
rhumerus -33.2548 -10.5393 -83.8605
rradius 29.0491
rwrist 12.2495
rhand -11.364 8.89388
rfingers 7.12502
rthumb 14.6699 -20.5672
lclavicle -8.20608e-015 -8.94531e-015
lhumerus -34.9084 5.76713 85.1682
lradius 29.8344
lwrist -11.7135
lhand -15.5937 25.8017
lfingers 7.12502
lthumb 10.5921 55.5148
rfemur -11.4727 5.35699 22.4008
rtibia 35.5089
rfoot -20.4271 -9.15089
rtoes 6.35909
lfemur -4.83105 -3.27262 -24.4146
ltibia 24.0367
lfoot -15.2722 5.24061
ltoes 2.79631
85
root 15.1492 18.096 -9.83804 -0.797078 -49.0535 2.90836
lowerback 6.8592 -0.29983 -1.86853
upperback -1.30017 -0.555035 0.1698
thorax -5.18222 -0.215137 1.28864
lowerneck -23.7768 -4.07451 -10.3534
upperneck 27.0378 -3.98377 6.39528
head 13.4493 -1.98782 3.52938
rclavicle -4.36829e-014 2.38542e-015
rhumerus -33.3622 -10.6043 -83.8452
rradius 29.0822
rwrist 12.3396
rhand -11.429 8.92594
rfingers 7.12502
rthumb 14.6072 -20.5396
lclavicle -4.36829e-014 2.38542e-015
lhumerus -35.0212 6.01223 85.0989
lradius 29.9114
lwrist -12.0249
lhand -15.4847 25.7549
lfingers 7.12502
lthumb 10.6972 55.4626
rfemur -11.4046 5.16513 22.5064
rtibia 35.5037
rfoot -20.5401 -8.93953
rtoes 6.9671
lfemur -4.83278 -3.22502 -24.2629
ltibia 24.122
lfoot -15.3213 5.07982
ltoes 3.14517
86
root 15.1409 18.0952 -9.84128 -0.802987 -48.9762 2.97371
lowerback 6.87117 -0.290946 -1.90019
upperback -1.33016 -0.548935 0.123108
thorax -5.22082 -0.211283 1.25751
lowerneck -23.6948 -4.08842 -10.242
upperneck 27.0667 -4.03064 6.30311
head 13.4443 -2.01148 3.46529
rclavicle 4.20305e-014 -9.93923e-015
rhumerus -33.4775 -10.7198 -83.8781
rradius 29.1125
rwrist 12.3675
rhand -11.3746 8.96512
rfingers 7.12502
rthumb 14.6596 -20.4967
lclavicle 4.20305e-014 -9.93923e-015
lhumerus -35.0584 6.01054 84.9981
lradius 29.9096
lwrist -12.1098
lhand -15.151 25.8297
lfingers 7.12502
lthumb 11.0191 55.5205
rfemur -11.4403 4.96225 22.4621
rtibia 35.5033
rfoot -20.5848 -8.87183
rtoes 6.64401
lfemur -4.93668 -3.18255 -24.2692
ltibia 24.2507
lfoot -15.4275 4.97808
ltoes 2.90098
87
root 15.1324 18.093 -9.84646 -0.771074 -48.9129 3.00788
lowerback 6.8737 -0.278387 -1.90752
upperback -1.36339 -0.535837 0.0732976
thorax -5.25792 -0.204769 1.2086
lowerneck -23.6159 -4.07836 -10.0935
upperneck 27.0988 -4.05159 6.19466
head 13.4369 -2.02217 3.39341
rclavicle -2.86809e-014 4.37326e-015
rhumerus -33.6114 -10.6955 -83.968
rradius 29.2097
rwrist 12.2293
rhand -11.3046 8.96285
rfingers 7.12502
rthumb 14.727 -20.494
lclavicle -2.86809e-014 4.37326e-015
lhumerus -35.0493 5.73476 84.9804
lradius 29.878
lwrist -11.9366
lhand -14.9963 26.0606
lfingers 7.12502
lthumb 11.1683 55.7434
rfemur -11.4968 4.95685 22.4577
rtibia 35.5088
rfoot -20.6635 -8.94469
rtoes 6.64752
lfemur -5.07953 -3.06468 -24.2427
ltibia 24.3906
lfoot -15.5415 4.85121
ltoes 2.66496
